<svg width="1200" height="600" viewBox="0 0 1200 600" fill="none" xmlns="http://www.w3.org/2000/svg">
  <defs>
    <linearGradient id="bg" x1="0" y1="0" x2="1" y2="1">
      <stop offset="0%" stop-color="#0f172a"/>
      <stop offset="100%" stop-color="#1f2937"/>
    </linearGradient>
    <linearGradient id="accent" x1="0" y1="0" x2="1" y2="0">
      <stop offset="0%" stop-color="#38bdf8"/>
      <stop offset="100%" stop-color="#22c55e"/>
    </linearGradient>
  </defs>
  <rect width="1200" height="600" rx="32" fill="url(#bg)"/>
  <g opacity="0.15">
    <circle cx="180" cy="120" r="60" fill="#fff"/>
    <circle cx="1020" cy="480" r="80" fill="#fff"/>
  </g>
  <rect x="120" y="140" width="360" height="320" rx="28" fill="#111827" stroke="#334155" stroke-width="2"/>
  <rect x="160" y="180" width="280" height="48" rx="10" fill="url(#accent)"/>
  <rect x="160" y="250" width="280" height="16" rx="8" fill="#334155"/>
  <rect x="160" y="280" width="240" height="16" rx="8" fill="#334155"/>
  <rect x="160" y="310" width="200" height="16" rx="8" fill="#334155"/>
  <rect x="160" y="350" width="220" height="16" rx="8" fill="#334155"/>

  <rect x="560" y="160" width="520" height="280" rx="24" fill="#0b1220" stroke="#334155" stroke-width="2"/>
  <rect x="600" y="200" width="440" height="48" rx="10" fill="#1e293b"/>
  <rect x="600" y="270" width="200" height="120" rx="18" fill="#0f172a" stroke="#334155"/>
  <rect x="840" y="270" width="200" height="120" rx="18" fill="#0f172a" stroke="#334155"/>

  <path d="M480 300 H560" stroke="url(#accent)" stroke-width="6" stroke-linecap="round"/>
  <circle cx="520" cy="300" r="10" fill="#38bdf8"/>

  <text x="160" y="125" fill="#e2e8f0" font-size="28" font-family="Arial, sans-serif" font-weight="700">Web UI Proxy</text>
  <text x="160" y="480" fill="#94a3b8" font-size="18" font-family="Arial, sans-serif">Ingress-прокси для локальных интерфейсов в Home Assistant</text>
</svg>
